<svg xmlns="http://www.w3.org/2000/svg" xmlns:xlink="http://www.w3.org/1999/xlink" contentStyleType="text/css" height="416px" preserveAspectRatio="none" style="width:547px;height:416px;background:#FFFFFF;" version="1.1" viewBox="0 0 547 416" width="547px" zoomAndPan="magnify"><defs/><g><!--cluster it.unimi.di.prog2.h09--><g id="cluster_it.unimi.di.prog2.h09"><path d="M16.5,4 L184.96,4 A3.75,3.75 0 0 1 187.46,6.5 L194.46,26.2969 L537.5,26.2969 A2.5,2.5 0 0 1 540,28.7969 L540,380.5 A2.5,2.5 0 0 1 537.5,383 L16.5,383 A2.5,2.5 0 0 1 14,380.5 L14,6.5 A2.5,2.5 0 0 1 16.5,4 " fill="none" style="stroke:#000000;stroke-width:1.5;"/><line style="stroke:#000000;stroke-width:1.5;" x1="14" x2="194.46" y1="26.2969" y2="26.2969"/><text fill="#000000" font-family="sans-serif" font-size="14" font-weight="bold" lengthAdjust="spacing" textLength="167.46" x="18" y="18.9951">it.unimi.di.prog2.h09</text></g><!--class Poly--><a href="Poly.html" target="_top" title="Poly.html" xlink:actuate="onRequest" xlink:href="Poly.html" xlink:show="new" xlink:title="Poly.html" xlink:type="simple"><g id="elem_Poly"><rect codeLine="6" fill="#F1F1F1" height="243.5625" id="Poly" rx="2.5" ry="2.5" style="stroke:#181818;stroke-width:0.5;" width="337.8213" x="22" y="31"/><ellipse cx="172.0693" cy="47" fill="#ADD1B2" rx="11" ry="11" style="stroke:#181818;stroke-width:1.0;"/><path d="M175.0381,52.6406 Q174.46,52.9375 173.8193,53.0781 Q173.1787,53.2344 172.4756,53.2344 Q169.9756,53.2344 168.6475,51.5938 Q167.335,49.9375 167.335,46.8125 Q167.335,43.6875 168.6475,42.0313 Q169.9756,40.375 172.4756,40.375 Q173.1787,40.375 173.8193,40.5313 Q174.4756,40.6875 175.0381,40.9844 L175.0381,43.7031 Q174.4131,43.125 173.8193,42.8594 Q173.2256,42.5781 172.6006,42.5781 Q171.2568,42.5781 170.5693,43.6563 Q169.8818,44.7188 169.8818,46.8125 Q169.8818,48.9063 170.5693,49.9844 Q171.2568,51.0469 172.6006,51.0469 Q173.2256,51.0469 173.8193,50.7813 Q174.4131,50.5 175.0381,49.9219 L175.0381,52.6406 Z " fill="#000000"/><text fill="#000000" font-family="sans-serif" font-size="14" lengthAdjust="spacing" textLength="29.1826" x="192.5693" y="51.8467">Poly</text><line style="stroke:#181818;stroke-width:0.5;" x1="23" x2="358.8213" y1="63" y2="63"/><rect fill="none" height="6" style="stroke:#C82930;stroke-width:1.0;" width="6" x="30" y="73.6484"/><text fill="#000000" font-family="sans-serif" font-size="14" lengthAdjust="spacing" textLength="111.5283" x="42" y="79.9951">coefficient: int[]</text><rect fill="none" height="6" style="stroke:#C82930;stroke-width:1.0;" width="6" x="30" y="89.9453"/><text fill="#000000" font-family="sans-serif" font-size="14" lengthAdjust="spacing" textLength="76.7881" x="42" y="96.292">degree: int</text><line style="stroke:#181818;stroke-width:0.5;" x1="23" x2="358.8213" y1="103.5938" y2="103.5938"/><ellipse cx="33" cy="117.2422" fill="#84BE84" rx="3" ry="3" style="stroke:#038048;stroke-width:1.0;"/><text fill="#000000" font-family="sans-serif" font-size="14" lengthAdjust="spacing" textLength="40.1064" x="42" y="120.5889">Poly()</text><ellipse cx="33" cy="133.5391" fill="#84BE84" rx="3" ry="3" style="stroke:#038048;stroke-width:1.0;"/><text fill="#000000" font-family="sans-serif" font-size="14" lengthAdjust="spacing" textLength="85.5107" x="42" y="136.8857">Poly(int, int)</text><rect fill="#F24D5C" height="6" style="stroke:#C82930;stroke-width:1.0;" width="6" x="30" y="146.8359"/><text fill="#000000" font-family="sans-serif" font-size="14" lengthAdjust="spacing" textLength="58.3584" x="42" y="153.1826">Poly(int)</text><ellipse cx="33" cy="166.1328" fill="#84BE84" rx="3" ry="3" style="stroke:#038048;stroke-width:1.0;"/><text fill="#000000" font-family="sans-serif" font-size="14" lengthAdjust="spacing" text-decoration="underline" textLength="311.8213" x="42" y="169.4795">monomialWithCoeffAndDegree(int, int): Poly</text><ellipse cx="33" cy="182.4297" fill="#84BE84" rx="3" ry="3" style="stroke:#038048;stroke-width:1.0;"/><text fill="#000000" font-family="sans-serif" font-size="14" lengthAdjust="spacing" textLength="87.7119" x="42" y="185.7764">degree(): int</text><ellipse cx="33" cy="198.7266" fill="#84BE84" rx="3" ry="3" style="stroke:#038048;stroke-width:1.0;"/><text fill="#000000" font-family="sans-serif" font-size="14" lengthAdjust="spacing" textLength="91.3281" x="42" y="202.0732">coeff(int): int</text><ellipse cx="33" cy="215.0234" fill="#84BE84" rx="3" ry="3" style="stroke:#038048;stroke-width:1.0;"/><text fill="#000000" font-family="sans-serif" font-size="14" lengthAdjust="spacing" textLength="104.8086" x="42" y="218.3701">add(Poly): Poly</text><ellipse cx="33" cy="231.3203" fill="#84BE84" rx="3" ry="3" style="stroke:#038048;stroke-width:1.0;"/><text fill="#000000" font-family="sans-serif" font-size="14" lengthAdjust="spacing" textLength="104.8564" x="42" y="234.667">mul(Poly): Poly</text><ellipse cx="33" cy="247.6172" fill="#84BE84" rx="3" ry="3" style="stroke:#038048;stroke-width:1.0;"/><text fill="#000000" font-family="sans-serif" font-size="14" lengthAdjust="spacing" textLength="103.5098" x="42" y="250.9639">sub(Poly): Poly</text><ellipse cx="33" cy="263.9141" fill="#84BE84" rx="3" ry="3" style="stroke:#038048;stroke-width:1.0;"/><text fill="#000000" font-family="sans-serif" font-size="14" lengthAdjust="spacing" textLength="91.8408" x="42" y="267.2607">minus(): Poly</text></g></a><!--class IntSet--><a href="IntSet.html" target="_top" title="IntSet.html" xlink:actuate="onRequest" xlink:href="IntSet.html" xlink:show="new" xlink:title="IntSet.html" xlink:type="simple"><g id="elem_IntSet"><rect codeLine="21" fill="#F1F1F1" height="162.0781" id="IntSet" rx="2.5" ry="2.5" style="stroke:#181818;stroke-width:0.5;" width="153.2578" x="378.5" y="72"/><ellipse cx="430.1387" cy="88" fill="#ADD1B2" rx="11" ry="11" style="stroke:#181818;stroke-width:1.0;"/><path d="M433.1074,93.6406 Q432.5293,93.9375 431.8887,94.0781 Q431.248,94.2344 430.5449,94.2344 Q428.0449,94.2344 426.7168,92.5938 Q425.4043,90.9375 425.4043,87.8125 Q425.4043,84.6875 426.7168,83.0313 Q428.0449,81.375 430.5449,81.375 Q431.248,81.375 431.8887,81.5313 Q432.5449,81.6875 433.1074,81.9844 L433.1074,84.7031 Q432.4824,84.125 431.8887,83.8594 Q431.2949,83.5781 430.6699,83.5781 Q429.3262,83.5781 428.6387,84.6563 Q427.9512,85.7188 427.9512,87.8125 Q427.9512,89.9063 428.6387,90.9844 Q429.3262,92.0469 430.6699,92.0469 Q431.2949,92.0469 431.8887,91.7813 Q432.4824,91.5 433.1074,90.9219 L433.1074,93.6406 Z " fill="#000000"/><text fill="#000000" font-family="sans-serif" font-size="14" lengthAdjust="spacing" textLength="41.4805" x="450.6387" y="92.8467">IntSet</text><line style="stroke:#181818;stroke-width:0.5;" x1="379.5" x2="530.7578" y1="104" y2="104"/><rect fill="none" height="6" style="stroke:#C82930;stroke-width:1.0;" width="6" x="386.5" y="114.6484"/><text fill="#000000" font-family="sans-serif" font-size="14" lengthAdjust="spacing" textLength="127.2578" x="398.5" y="120.9951">els: List&lt;Integer&gt;</text><line style="stroke:#181818;stroke-width:0.5;" x1="379.5" x2="530.7578" y1="128.2969" y2="128.2969"/><rect fill="#F24D5C" height="6" style="stroke:#C82930;stroke-width:1.0;" width="6" x="386.5" y="138.9453"/><text fill="#000000" font-family="sans-serif" font-size="14" lengthAdjust="spacing" textLength="118.3711" x="398.5" y="145.292">getIndex(int): int</text><ellipse cx="389.5" cy="158.2422" fill="#84BE84" rx="3" ry="3" style="stroke:#038048;stroke-width:1.0;"/><text fill="#000000" font-family="sans-serif" font-size="14" lengthAdjust="spacing" textLength="107.8848" x="398.5" y="161.5889">insert(int): void</text><ellipse cx="389.5" cy="174.5391" fill="#84BE84" rx="3" ry="3" style="stroke:#038048;stroke-width:1.0;"/><text fill="#000000" font-family="sans-serif" font-size="14" lengthAdjust="spacing" textLength="121.4404" x="398.5" y="177.8857">remove(int): void</text><ellipse cx="389.5" cy="190.8359" fill="#84BE84" rx="3" ry="3" style="stroke:#038048;stroke-width:1.0;"/><text fill="#000000" font-family="sans-serif" font-size="14" lengthAdjust="spacing" textLength="118.501" x="398.5" y="194.1826">isIn(int): boolean</text><ellipse cx="389.5" cy="207.1328" fill="#84BE84" rx="3" ry="3" style="stroke:#038048;stroke-width:1.0;"/><text fill="#000000" font-family="sans-serif" font-size="14" lengthAdjust="spacing" textLength="65.4883" x="398.5" y="210.4795">size(): int</text><ellipse cx="389.5" cy="223.4297" fill="#84BE84" rx="3" ry="3" style="stroke:#038048;stroke-width:1.0;"/><text fill="#000000" font-family="sans-serif" font-size="14" lengthAdjust="spacing" textLength="87.9512" x="398.5" y="226.7764">choose(): int</text></g></a><!--class IntSetsClient--><a href="IntSetsClient.html" target="_top" title="IntSetsClient.html" xlink:actuate="onRequest" xlink:href="IntSetsClient.html" xlink:show="new" xlink:title="IntSetsClient.html" xlink:type="simple"><g id="elem_IntSetsClient"><rect codeLine="31" fill="#F1F1F1" height="64.2969" id="IntSetsClient" rx="2.5" ry="2.5" style="stroke:#181818;stroke-width:0.5;" width="163.4023" x="109.5" y="311"/><ellipse cx="143.4439" cy="327" fill="#ADD1B2" rx="11" ry="11" style="stroke:#181818;stroke-width:1.0;"/><path d="M146.4127,332.6406 Q145.8346,332.9375 145.1939,333.0781 Q144.5533,333.2344 143.8502,333.2344 Q141.3502,333.2344 140.0221,331.5938 Q138.7096,329.9375 138.7096,326.8125 Q138.7096,323.6875 140.0221,322.0313 Q141.3502,320.375 143.8502,320.375 Q144.5533,320.375 145.1939,320.5313 Q145.8502,320.6875 146.4127,320.9844 L146.4127,323.7031 Q145.7877,323.125 145.1939,322.8594 Q144.6002,322.5781 143.9752,322.5781 Q142.6314,322.5781 141.9439,323.6563 Q141.2564,324.7188 141.2564,326.8125 Q141.2564,328.9063 141.9439,329.9844 Q142.6314,331.0469 143.9752,331.0469 Q144.6002,331.0469 145.1939,330.7813 Q145.7877,330.5 146.4127,329.9219 L146.4127,332.6406 Z " fill="#000000"/><text fill="#000000" font-family="sans-serif" font-size="14" lengthAdjust="spacing" textLength="89.3047" x="161.6537" y="331.8467">IntSetsClient</text><line style="stroke:#181818;stroke-width:0.5;" x1="110.5" x2="271.9023" y1="343" y2="343"/><line style="stroke:#181818;stroke-width:0.5;" x1="110.5" x2="271.9023" y1="351" y2="351"/><ellipse cx="120.5" cy="364.6484" fill="#84BE84" rx="3" ry="3" style="stroke:#038048;stroke-width:1.0;"/><text fill="#000000" font-family="sans-serif" font-size="14" lengthAdjust="spacing" text-decoration="underline" textLength="137.4023" x="129.5" y="367.9951">main(String[]): void</text></g></a><!--class PolyClient--><a href="PolyClient.html" target="_top" title="PolyClient.html" xlink:actuate="onRequest" xlink:href="PolyClient.html" xlink:show="new" xlink:title="PolyClient.html" xlink:type="simple"><g id="elem_PolyClient"><rect codeLine="35" fill="#F1F1F1" height="64.2969" id="PolyClient" rx="2.5" ry="2.5" style="stroke:#181818;stroke-width:0.5;" width="163.4023" x="290.5" y="311"/><ellipse cx="333.2603" cy="327" fill="#ADD1B2" rx="11" ry="11" style="stroke:#181818;stroke-width:1.0;"/><path d="M336.229,332.6406 Q335.6509,332.9375 335.0103,333.0781 Q334.3696,333.2344 333.6665,333.2344 Q331.1665,333.2344 329.8384,331.5938 Q328.5259,329.9375 328.5259,326.8125 Q328.5259,323.6875 329.8384,322.0313 Q331.1665,320.375 333.6665,320.375 Q334.3696,320.375 335.0103,320.5313 Q335.6665,320.6875 336.229,320.9844 L336.229,323.7031 Q335.604,323.125 335.0103,322.8594 Q334.4165,322.5781 333.7915,322.5781 Q332.4478,322.5781 331.7603,323.6563 Q331.0728,324.7188 331.0728,326.8125 Q331.0728,328.9063 331.7603,329.9844 Q332.4478,331.0469 333.7915,331.0469 Q334.4165,331.0469 335.0103,330.7813 Q335.604,330.5 336.229,329.9219 L336.229,332.6406 Z " fill="#000000"/><text fill="#000000" font-family="sans-serif" font-size="14" lengthAdjust="spacing" textLength="69.7129" x="353.4292" y="331.8467">PolyClient</text><line style="stroke:#181818;stroke-width:0.5;" x1="291.5" x2="452.9023" y1="343" y2="343"/><line style="stroke:#181818;stroke-width:0.5;" x1="291.5" x2="452.9023" y1="351" y2="351"/><ellipse cx="301.5" cy="364.6484" fill="#84BE84" rx="3" ry="3" style="stroke:#038048;stroke-width:1.0;"/><text fill="#000000" font-family="sans-serif" font-size="14" lengthAdjust="spacing" text-decoration="underline" textLength="137.4023" x="310.5" y="367.9951">main(String[]): void</text></g></a><text fill="#888888" font-family="sans-serif" font-size="10" lengthAdjust="spacing" textLength="3.1787" x="263.9106" y="394.2822">&#160;</text><text fill="#888888" font-family="sans-serif" font-size="10" lengthAdjust="spacing" textLength="183.0908" x="173.9546" y="405.9229">UMLDoclet 2.2.0, PlantUML 1.2024.6</text><!--SRC=[hPFDIiD0483lFiLu45AqeVHc447QIw52eOY7cCCscQQ3cvcokobMoRkxIQirDV7a7hAP-MRdTnS0u79hL5ueq6elfGDRe5EiBZm1Yrx6hJBAYO4ekcYqMvM-gXo1N5Wo5HHc56wDvEDmCxg5ZuDHlLAjh8M5w3t4SRs56rVe9F4sy6CDKy7rcb92TX4GkpXfymnpWzYW5hYkVGQ33fstlAdDsspunThg3-kKexI2wq9O2bBwcTncKYVrmDcq2Nxo63K5jMCU4Wm67IasjGM7Wx-WohAWzjRfj2XrFxJbwe-JnAKDpb5rFfWPkwKVS1mVVdg6Wzf6C2VhxhmPvcZkspn7D-CCt_fg9BPet97kXB8sDbZ83dinsHaVuKf4e-ApFj1xJzyt8lONwkc1dUZwydstuYXtT-J7TL74mT8PuZnEpjElkjx1TvoJy1z1gkQRUczeO2rIRo_yz3YVIghzYCVXE1pTm48hTbuBLpiqbeI3mIS0]--></g></svg>