<svg xmlns="http://www.w3.org/2000/svg" xmlns:xlink="http://www.w3.org/1999/xlink" contentStyleType="text/css" height="220px" preserveAspectRatio="none" style="width:281px;height:220px;background:#FFFFFF;" version="1.1" viewBox="0 0 281 220" width="281px" zoomAndPan="magnify"><defs/><g><!--cluster it.unimi.di.prog2.e06--><g id="cluster_it.unimi.di.prog2.e06"><path d="M16.5,4 L184.4883,4 A3.75,3.75 0 0 1 186.9883,6.5 L193.9883,26.2969 L271.5,26.2969 A2.5,2.5 0 0 1 274,28.7969 L274,184.5 A2.5,2.5 0 0 1 271.5,187 L16.5,187 A2.5,2.5 0 0 1 14,184.5 L14,6.5 A2.5,2.5 0 0 1 16.5,4 " fill="none" style="stroke:#000000;stroke-width:1.5;"/><line style="stroke:#000000;stroke-width:1.5;" x1="14" x2="193.9883" y1="26.2969" y2="26.2969"/><text fill="#000000" font-family="sans-serif" font-size="14" font-weight="bold" lengthAdjust="spacing" textLength="166.9883" x="18" y="18.9951">it.unimi.di.prog2.e06</text></g><!--class SearchClient--><a href="SearchClient.html" target="_top" title="SearchClient.html" xlink:actuate="onRequest" xlink:href="SearchClient.html" xlink:show="new" xlink:title="SearchClient.html" xlink:type="simple"><g id="elem_SearchClient"><rect codeLine="6" fill="#F1F1F1" height="48" id="SearchClient" rx="2.5" ry="2.5" style="stroke:#181818;stroke-width:0.5;" width="120.9355" x="22.5" y="31"/><ellipse cx="37.5" cy="47" fill="#ADD1B2" rx="11" ry="11" style="stroke:#181818;stroke-width:1.0;"/><path d="M40.4688,52.6406 Q39.8906,52.9375 39.25,53.0781 Q38.6094,53.2344 37.9063,53.2344 Q35.4063,53.2344 34.0781,51.5938 Q32.7656,49.9375 32.7656,46.8125 Q32.7656,43.6875 34.0781,42.0313 Q35.4063,40.375 37.9063,40.375 Q38.6094,40.375 39.25,40.5313 Q39.9063,40.6875 40.4688,40.9844 L40.4688,43.7031 Q39.8438,43.125 39.25,42.8594 Q38.6563,42.5781 38.0313,42.5781 Q36.6875,42.5781 36,43.6563 Q35.3125,44.7188 35.3125,46.8125 Q35.3125,48.9063 36,49.9844 Q36.6875,51.0469 38.0313,51.0469 Q38.6563,51.0469 39.25,50.7813 Q39.8438,50.5 40.4688,49.9219 L40.4688,52.6406 Z " fill="#000000"/><text fill="#000000" font-family="sans-serif" font-size="14" lengthAdjust="spacing" textLength="88.9355" x="51.5" y="51.8467">SearchClient</text><line style="stroke:#181818;stroke-width:0.5;" x1="23.5" x2="142.4355" y1="63" y2="63"/><line style="stroke:#181818;stroke-width:0.5;" x1="23.5" x2="142.4355" y1="71" y2="71"/></g></a><!--class SumClient--><a href="SumClient.html" target="_top" title="SumClient.html" xlink:actuate="onRequest" xlink:href="SumClient.html" xlink:show="new" xlink:title="SumClient.html" xlink:type="simple"><g id="elem_SumClient"><rect codeLine="8" fill="#F1F1F1" height="48" id="SumClient" rx="2.5" ry="2.5" style="stroke:#181818;stroke-width:0.5;" width="103.9277" x="162" y="31"/><ellipse cx="177" cy="47" fill="#ADD1B2" rx="11" ry="11" style="stroke:#181818;stroke-width:1.0;"/><path d="M179.9688,52.6406 Q179.3906,52.9375 178.75,53.0781 Q178.1094,53.2344 177.4063,53.2344 Q174.9063,53.2344 173.5781,51.5938 Q172.2656,49.9375 172.2656,46.8125 Q172.2656,43.6875 173.5781,42.0313 Q174.9063,40.375 177.4063,40.375 Q178.1094,40.375 178.75,40.5313 Q179.4063,40.6875 179.9688,40.9844 L179.9688,43.7031 Q179.3438,43.125 178.75,42.8594 Q178.1563,42.5781 177.5313,42.5781 Q176.1875,42.5781 175.5,43.6563 Q174.8125,44.7188 174.8125,46.8125 Q174.8125,48.9063 175.5,49.9844 Q176.1875,51.0469 177.5313,51.0469 Q178.1563,51.0469 178.75,50.7813 Q179.3438,50.5 179.9688,49.9219 L179.9688,52.6406 Z " fill="#000000"/><text fill="#000000" font-family="sans-serif" font-size="14" lengthAdjust="spacing" textLength="71.9277" x="191" y="51.8467">SumClient</text><line style="stroke:#181818;stroke-width:0.5;" x1="163" x2="264.9277" y1="63" y2="63"/><line style="stroke:#181818;stroke-width:0.5;" x1="163" x2="264.9277" y1="71" y2="71"/></g></a><!--class CombineClient--><a href="CombineClient.html" target="_top" title="CombineClient.html" xlink:actuate="onRequest" xlink:href="CombineClient.html" xlink:show="new" xlink:title="CombineClient.html" xlink:type="simple"><g id="elem_CombineClient"><rect codeLine="10" fill="#F1F1F1" height="64.2969" id="CombineClient" rx="2.5" ry="2.5" style="stroke:#181818;stroke-width:0.5;" width="181.9619" x="22" y="115"/><ellipse cx="58.2357" cy="131" fill="#ADD1B2" rx="11" ry="11" style="stroke:#181818;stroke-width:1.0;"/><path d="M61.2044,136.6406 Q60.6263,136.9375 59.9857,137.0781 Q59.3451,137.2344 58.6419,137.2344 Q56.1419,137.2344 54.8138,135.5938 Q53.5013,133.9375 53.5013,130.8125 Q53.5013,127.6875 54.8138,126.0313 Q56.1419,124.375 58.6419,124.375 Q59.3451,124.375 59.9857,124.5313 Q60.6419,124.6875 61.2044,124.9844 L61.2044,127.7031 Q60.5794,127.125 59.9857,126.8594 Q59.3919,126.5781 58.7669,126.5781 Q57.4232,126.5781 56.7357,127.6563 Q56.0482,128.7188 56.0482,130.8125 Q56.0482,132.9063 56.7357,133.9844 Q57.4232,135.0469 58.7669,135.0469 Q59.3919,135.0469 59.9857,134.7813 Q60.5794,134.5 61.2044,133.9219 L61.2044,136.6406 Z " fill="#000000"/><text fill="#000000" font-family="sans-serif" font-size="14" lengthAdjust="spacing" textLength="102.7715" x="76.9547" y="135.8467">CombineClient</text><line style="stroke:#181818;stroke-width:0.5;" x1="23" x2="202.9619" y1="147" y2="147"/><line style="stroke:#181818;stroke-width:0.5;" x1="23" x2="202.9619" y1="155" y2="155"/><rect fill="#F24D5C" height="6" style="stroke:#C82930;stroke-width:1.0;" width="6" x="30" y="165.6484"/><text fill="#000000" font-family="sans-serif" font-size="14" lengthAdjust="spacing" text-decoration="underline" textLength="155.9619" x="42" y="171.9951">parseInts(String): int[]</text></g></a><text fill="#888888" font-family="sans-serif" font-size="10" lengthAdjust="spacing" textLength="3.1787" x="130.9106" y="198.2822">&#160;</text><text fill="#888888" font-family="sans-serif" font-size="10" lengthAdjust="spacing" textLength="183.0908" x="40.9546" y="209.9229">UMLDoclet 2.2.0, PlantUML 1.2024.6</text><!--SRC=[TP0zRm8n38PtVeKPAe548tH3XrjXGMgbIgZJSOCRp64rSKw9hn92zzyRe7m9uI7sQpzEOWC03Dk8ZKTmk0kTGlAaA3Z85KYKDRKOKKE4iXmSiotQ7sm8M4qdxDcisRGnD8MXwHliJz31hCEKO4aOxNRcc4IXgcwbsQftTVtGqVahVewViBFWlrdemj_f_vxy9xYnVL9KjZsyviaIBKJJQAcHfHcNmA9LVS7xqtFzyRJvHegm2U7WLlBryJuFrkKT5QOmqmbyEXJDMNZvfPWuo6Zy1m00]--></g></svg>