<svg xmlns="http://www.w3.org/2000/svg" xmlns:xlink="http://www.w3.org/1999/xlink" contentStyleType="text/css" height="549px" preserveAspectRatio="none" style="width:753px;height:549px;background:#FFFFFF;" version="1.1" viewBox="0 0 753 549" width="753px" zoomAndPan="magnify"><defs/><g><!--cluster it.unimi.di.prog2.h10--><g id="cluster_it.unimi.di.prog2.h10"><path d="M16.5,4 L184.96,4 A3.75,3.75 0 0 1 187.46,6.5 L194.46,26.2969 L637.5,26.2969 A2.5,2.5 0 0 1 640,28.7969 L640,513.5 A2.5,2.5 0 0 1 637.5,516 L16.5,516 A2.5,2.5 0 0 1 14,513.5 L14,6.5 A2.5,2.5 0 0 1 16.5,4 " fill="none" style="stroke:#000000;stroke-width:1.5;"/><line style="stroke:#000000;stroke-width:1.5;" x1="14" x2="194.46" y1="26.2969" y2="26.2969"/><text fill="#000000" font-family="sans-serif" font-size="14" font-weight="bold" lengthAdjust="spacing" textLength="167.46" x="18" y="18.9951">it.unimi.di.prog2.h10</text></g><!--cluster java.lang--><g id="cluster_java.lang"><path d="M650.5,93.5 L723.8721,93.5 A3.75,3.75 0 0 1 726.3721,96 L733.3721,115.7969 L743.5,115.7969 A2.5,2.5 0 0 1 746,118.2969 L746,174 A2.5,2.5 0 0 1 743.5,176.5 L650.5,176.5 A2.5,2.5 0 0 1 648,174 L648,96 A2.5,2.5 0 0 1 650.5,93.5 " fill="none" style="stroke:#000000;stroke-width:1.5;"/><line style="stroke:#000000;stroke-width:1.5;" x1="648" x2="733.3721" y1="115.7969" y2="115.7969"/><text fill="#000000" font-family="sans-serif" font-size="14" font-weight="bold" lengthAdjust="spacing" textLength="72.3721" x="652" y="108.4951">java.lang</text></g><!--class SparsePolyClient--><a href="SparsePolyClient.html" target="_top" title="SparsePolyClient.html" xlink:actuate="onRequest" xlink:href="SparsePolyClient.html" xlink:show="new" xlink:title="SparsePolyClient.html" xlink:type="simple"><g id="elem_SparsePolyClient"><rect codeLine="6" fill="#F1F1F1" height="64.2969" id="SparsePolyClient" rx="2.5" ry="2.5" style="stroke:#181818;stroke-width:0.5;" width="163.4023" x="312.5" y="112.5"/><ellipse cx="333.6532" cy="128.5" fill="#ADD1B2" rx="11" ry="11" style="stroke:#181818;stroke-width:1.0;"/><path d="M336.622,134.1406 Q336.0438,134.4375 335.4032,134.5781 Q334.7626,134.7344 334.0595,134.7344 Q331.5595,134.7344 330.2313,133.0938 Q328.9188,131.4375 328.9188,128.3125 Q328.9188,125.1875 330.2313,123.5313 Q331.5595,121.875 334.0595,121.875 Q334.7626,121.875 335.4032,122.0313 Q336.0595,122.1875 336.622,122.4844 L336.622,125.2031 Q335.997,124.625 335.4032,124.3594 Q334.8095,124.0781 334.1845,124.0781 Q332.8407,124.0781 332.1532,125.1563 Q331.4657,126.2188 331.4657,128.3125 Q331.4657,130.4063 332.1532,131.4844 Q332.8407,132.5469 334.1845,132.5469 Q334.8095,132.5469 335.4032,132.2813 Q335.997,132 336.622,131.4219 L336.622,134.1406 Z " fill="#000000"/><text fill="#000000" font-family="sans-serif" font-size="14" lengthAdjust="spacing" textLength="117.7285" x="349.0206" y="133.3467">SparsePolyClient</text><line style="stroke:#181818;stroke-width:0.5;" x1="313.5" x2="474.9023" y1="144.5" y2="144.5"/><line style="stroke:#181818;stroke-width:0.5;" x1="313.5" x2="474.9023" y1="152.5" y2="152.5"/><ellipse cx="323.5" cy="166.1484" fill="#84BE84" rx="3" ry="3" style="stroke:#038048;stroke-width:1.0;"/><text fill="#000000" font-family="sans-serif" font-size="14" lengthAdjust="spacing" text-decoration="underline" textLength="137.4023" x="332.5" y="169.4951">main(String[]): void</text></g></a><!--class SparsePoly--><a href="SparsePoly.html" target="_top" title="SparsePoly.html" xlink:actuate="onRequest" xlink:href="SparsePoly.html" xlink:show="new" xlink:title="SparsePoly.html" xlink:type="simple"><g id="elem_SparsePoly"><rect codeLine="10" fill="#F1F1F1" height="227.2656" id="SparsePoly" rx="2.5" ry="2.5" style="stroke:#181818;stroke-width:0.5;" width="271.7178" x="22" y="31"/><ellipse cx="115.0098" cy="47" fill="#ADD1B2" rx="11" ry="11" style="stroke:#181818;stroke-width:1.0;"/><path d="M117.9785,52.6406 Q117.4004,52.9375 116.7598,53.0781 Q116.1191,53.2344 115.416,53.2344 Q112.916,53.2344 111.5879,51.5938 Q110.2754,49.9375 110.2754,46.8125 Q110.2754,43.6875 111.5879,42.0313 Q112.916,40.375 115.416,40.375 Q116.1191,40.375 116.7598,40.5313 Q117.416,40.6875 117.9785,40.9844 L117.9785,43.7031 Q117.3535,43.125 116.7598,42.8594 Q116.166,42.5781 115.541,42.5781 Q114.1973,42.5781 113.5098,43.6563 Q112.8223,44.7188 112.8223,46.8125 Q112.8223,48.9063 113.5098,49.9844 Q114.1973,51.0469 115.541,51.0469 Q116.166,51.0469 116.7598,50.7813 Q117.3535,50.5 117.9785,49.9219 L117.9785,52.6406 Z " fill="#000000"/><text fill="#000000" font-family="sans-serif" font-size="14" lengthAdjust="spacing" textLength="77.1982" x="135.5098" y="51.8467">SparsePoly</text><line style="stroke:#181818;stroke-width:0.5;" x1="23" x2="292.7178" y1="63" y2="63"/><line style="stroke:#181818;stroke-width:0.5;" x1="23" x2="292.7178" y1="71" y2="71"/><ellipse cx="33" cy="84.6484" fill="#84BE84" rx="3" ry="3" style="stroke:#038048;stroke-width:1.0;"/><text fill="#000000" font-family="sans-serif" font-size="14" lengthAdjust="spacing" textLength="88.1221" x="42" y="87.9951">SparsePoly()</text><ellipse cx="33" cy="100.9453" fill="#84BE84" rx="3" ry="3" style="stroke:#038048;stroke-width:1.0;"/><text fill="#000000" font-family="sans-serif" font-size="14" lengthAdjust="spacing" textLength="133.5264" x="42" y="104.292">SparsePoly(int, int)</text><rect fill="#F24D5C" height="6" style="stroke:#C82930;stroke-width:1.0;" width="6" x="30" y="114.2422"/><text fill="#000000" font-family="sans-serif" font-size="14" lengthAdjust="spacing" textLength="172.6143" x="42" y="120.5889">SparsePoly(List&lt;Term&gt;)</text><rect fill="#F24D5C" height="6" style="stroke:#C82930;stroke-width:1.0;" width="6" x="30" y="130.5391"/><text fill="#000000" font-family="sans-serif" font-size="14" lengthAdjust="spacing" text-decoration="underline" textLength="245.7178" x="42" y="136.8857">findByDegree(List&lt;Term&gt;, int): int</text><ellipse cx="33" cy="149.8359" fill="#84BE84" rx="3" ry="3" style="stroke:#038048;stroke-width:1.0;"/><text fill="#000000" font-family="sans-serif" font-size="14" lengthAdjust="spacing" textLength="91.3281" x="42" y="153.1826">coeff(int): int</text><ellipse cx="33" cy="166.1328" fill="#84BE84" rx="3" ry="3" style="stroke:#038048;stroke-width:1.0;"/><text fill="#000000" font-family="sans-serif" font-size="14" lengthAdjust="spacing" textLength="87.7119" x="42" y="169.4795">degree(): int</text><rect fill="#F24D5C" height="6" style="stroke:#C82930;stroke-width:1.0;" width="6" x="30" y="179.4297"/><text fill="#000000" font-family="sans-serif" font-size="14" lengthAdjust="spacing" text-decoration="underline" textLength="242.5801" x="42" y="185.7764">addTerm(List&lt;Term&gt;, Term): void</text><ellipse cx="33" cy="198.7266" fill="#84BE84" rx="3" ry="3" style="stroke:#038048;stroke-width:1.0;"/><text fill="#000000" font-family="sans-serif" font-size="14" lengthAdjust="spacing" textLength="200.8398" x="42" y="202.0732">add(SparsePoly): SparsePoly</text><ellipse cx="33" cy="215.0234" fill="#84BE84" rx="3" ry="3" style="stroke:#038048;stroke-width:1.0;"/><text fill="#000000" font-family="sans-serif" font-size="14" lengthAdjust="spacing" textLength="200.8877" x="42" y="218.3701">mul(SparsePoly): SparsePoly</text><ellipse cx="33" cy="231.3203" fill="#84BE84" rx="3" ry="3" style="stroke:#038048;stroke-width:1.0;"/><text fill="#000000" font-family="sans-serif" font-size="14" lengthAdjust="spacing" textLength="199.541" x="42" y="234.667">sub(SparsePoly): SparsePoly</text><ellipse cx="33" cy="247.6172" fill="#84BE84" rx="3" ry="3" style="stroke:#038048;stroke-width:1.0;"/><text fill="#000000" font-family="sans-serif" font-size="14" lengthAdjust="spacing" textLength="139.8564" x="42" y="250.9639">minus(): SparsePoly</text></g></a><!--class SparsePoly.Term--><a href="SparsePoly.Term.html" target="_top" title="SparsePoly.Term.html" xlink:actuate="onRequest" xlink:href="SparsePoly.Term.html" xlink:show="new" xlink:title="SparsePoly.Term.html" xlink:type="simple"><g id="elem_SparsePoly.Term"><rect codeLine="24" fill="#F1F1F1" height="129.4844" id="SparsePoly.Term" rx="2.5" ry="2.5" style="stroke:#181818;stroke-width:0.5;" width="150.207" x="129" y="346"/><ellipse cx="144" cy="362" fill="#ADD1B2" rx="11" ry="11" style="stroke:#181818;stroke-width:1.0;"/><path d="M146.9688,367.6406 Q146.3906,367.9375 145.75,368.0781 Q145.1094,368.2344 144.4063,368.2344 Q141.9063,368.2344 140.5781,366.5938 Q139.2656,364.9375 139.2656,361.8125 Q139.2656,358.6875 140.5781,357.0313 Q141.9063,355.375 144.4063,355.375 Q145.1094,355.375 145.75,355.5313 Q146.4063,355.6875 146.9688,355.9844 L146.9688,358.7031 Q146.3438,358.125 145.75,357.8594 Q145.1563,357.5781 144.5313,357.5781 Q143.1875,357.5781 142.5,358.6563 Q141.8125,359.7188 141.8125,361.8125 Q141.8125,363.9063 142.5,364.9844 Q143.1875,366.0469 144.5313,366.0469 Q145.1563,366.0469 145.75,365.7813 Q146.3438,365.5 146.9688,364.9219 L146.9688,367.6406 Z " fill="#000000"/><text fill="#000000" font-family="sans-serif" font-size="14" lengthAdjust="spacing" textLength="118.207" x="158" y="366.8467">SparsePoly.Term</text><line style="stroke:#181818;stroke-width:0.5;" x1="130" x2="278.207" y1="378" y2="378"/><rect fill="none" height="6" style="stroke:#C82930;stroke-width:1.0;" width="6" x="137" y="388.6484"/><text fill="#000000" font-family="sans-serif" font-size="14" lengthAdjust="spacing" textLength="100.6045" x="149" y="394.9951">coefficient: int</text><rect fill="none" height="6" style="stroke:#C82930;stroke-width:1.0;" width="6" x="137" y="404.9453"/><text fill="#000000" font-family="sans-serif" font-size="14" lengthAdjust="spacing" textLength="76.7881" x="149" y="411.292">degree: int</text><line style="stroke:#181818;stroke-width:0.5;" x1="130" x2="278.207" y1="418.5938" y2="418.5938"/><ellipse cx="140" cy="432.2422" fill="#84BE84" rx="3" ry="3" style="stroke:#038048;stroke-width:1.0;"/><text fill="#000000" font-family="sans-serif" font-size="14" lengthAdjust="spacing" textLength="92.8867" x="149" y="435.5889">Term(int, int)</text><ellipse cx="140" cy="448.5391" fill="#84BE84" rx="3" ry="3" style="stroke:#038048;stroke-width:1.0;"/><text fill="#000000" font-family="sans-serif" font-size="14" lengthAdjust="spacing" textLength="111.5283" x="149" y="451.8857">coefficient(): int</text><ellipse cx="140" cy="464.8359" fill="#84BE84" rx="3" ry="3" style="stroke:#038048;stroke-width:1.0;"/><text fill="#000000" font-family="sans-serif" font-size="14" lengthAdjust="spacing" textLength="87.7119" x="149" y="468.1826">degree(): int</text></g></a><!--class Poly--><a href="Poly.html" target="_top" title="Poly.html" xlink:actuate="onRequest" xlink:href="Poly.html" xlink:show="new" xlink:title="Poly.html" xlink:type="simple"><g id="elem_Poly"><rect codeLine="32" fill="#F1F1F1" height="210.9688" id="Poly" rx="2.5" ry="2.5" style="stroke:#181818;stroke-width:0.5;" width="137.5283" x="494" y="39"/><ellipse cx="543.9229" cy="55" fill="#ADD1B2" rx="11" ry="11" style="stroke:#181818;stroke-width:1.0;"/><path d="M546.8916,60.6406 Q546.3135,60.9375 545.6729,61.0781 Q545.0322,61.2344 544.3291,61.2344 Q541.8291,61.2344 540.501,59.5938 Q539.1885,57.9375 539.1885,54.8125 Q539.1885,51.6875 540.501,50.0313 Q541.8291,48.375 544.3291,48.375 Q545.0322,48.375 545.6729,48.5313 Q546.3291,48.6875 546.8916,48.9844 L546.8916,51.7031 Q546.2666,51.125 545.6729,50.8594 Q545.0791,50.5781 544.4541,50.5781 Q543.1104,50.5781 542.4229,51.6563 Q541.7354,52.7188 541.7354,54.8125 Q541.7354,56.9063 542.4229,57.9844 Q543.1104,59.0469 544.4541,59.0469 Q545.0791,59.0469 545.6729,58.7813 Q546.2666,58.5 546.8916,57.9219 L546.8916,60.6406 Z " fill="#000000"/><text fill="#000000" font-family="sans-serif" font-size="14" lengthAdjust="spacing" textLength="29.1826" x="564.4229" y="59.8467">Poly</text><line style="stroke:#181818;stroke-width:0.5;" x1="495" x2="630.5283" y1="71" y2="71"/><rect fill="none" height="6" style="stroke:#C82930;stroke-width:1.0;" width="6" x="502" y="81.6484"/><text fill="#000000" font-family="sans-serif" font-size="14" lengthAdjust="spacing" textLength="111.5283" x="514" y="87.9951">coefficient: int[]</text><line style="stroke:#181818;stroke-width:0.5;" x1="495" x2="630.5283" y1="95.2969" y2="95.2969"/><ellipse cx="505" cy="108.9453" fill="#84BE84" rx="3" ry="3" style="stroke:#038048;stroke-width:1.0;"/><text fill="#000000" font-family="sans-serif" font-size="14" lengthAdjust="spacing" textLength="40.1064" x="514" y="112.292">Poly()</text><ellipse cx="505" cy="125.2422" fill="#84BE84" rx="3" ry="3" style="stroke:#038048;stroke-width:1.0;"/><text fill="#000000" font-family="sans-serif" font-size="14" lengthAdjust="spacing" textLength="85.5107" x="514" y="128.5889">Poly(int, int)</text><rect fill="#F24D5C" height="6" style="stroke:#C82930;stroke-width:1.0;" width="6" x="502" y="138.5391"/><text fill="#000000" font-family="sans-serif" font-size="14" lengthAdjust="spacing" textLength="58.3584" x="514" y="144.8857">Poly(int)</text><ellipse cx="505" cy="157.8359" fill="#84BE84" rx="3" ry="3" style="stroke:#038048;stroke-width:1.0;"/><text fill="#000000" font-family="sans-serif" font-size="14" lengthAdjust="spacing" textLength="87.7119" x="514" y="161.1826">degree(): int</text><ellipse cx="505" cy="174.1328" fill="#84BE84" rx="3" ry="3" style="stroke:#038048;stroke-width:1.0;"/><text fill="#000000" font-family="sans-serif" font-size="14" lengthAdjust="spacing" textLength="91.3281" x="514" y="177.4795">coeff(int): int</text><ellipse cx="505" cy="190.4297" fill="#84BE84" rx="3" ry="3" style="stroke:#038048;stroke-width:1.0;"/><text fill="#000000" font-family="sans-serif" font-size="14" lengthAdjust="spacing" textLength="104.8086" x="514" y="193.7764">add(Poly): Poly</text><ellipse cx="505" cy="206.7266" fill="#84BE84" rx="3" ry="3" style="stroke:#038048;stroke-width:1.0;"/><text fill="#000000" font-family="sans-serif" font-size="14" lengthAdjust="spacing" textLength="104.8564" x="514" y="210.0732">mul(Poly): Poly</text><ellipse cx="505" cy="223.0234" fill="#84BE84" rx="3" ry="3" style="stroke:#038048;stroke-width:1.0;"/><text fill="#000000" font-family="sans-serif" font-size="14" lengthAdjust="spacing" textLength="103.5098" x="514" y="226.3701">sub(Poly): Poly</text><ellipse cx="505" cy="239.3203" fill="#84BE84" rx="3" ry="3" style="stroke:#038048;stroke-width:1.0;"/><text fill="#000000" font-family="sans-serif" font-size="14" lengthAdjust="spacing" textLength="91.8408" x="514" y="242.667">minus(): Poly</text></g></a><!--class IntSet--><a href="IntSet.html" target="_top" title="IntSet.html" xlink:actuate="onRequest" xlink:href="IntSet.html" xlink:show="new" xlink:title="IntSet.html" xlink:type="simple"><g id="elem_IntSet"><rect codeLine="45" fill="#F1F1F1" height="194.6719" id="IntSet" rx="2.5" ry="2.5" style="stroke:#181818;stroke-width:0.5;" width="153.2578" x="297.5" y="313"/><ellipse cx="349.1387" cy="329" fill="#ADD1B2" rx="11" ry="11" style="stroke:#181818;stroke-width:1.0;"/><path d="M352.1074,334.6406 Q351.5293,334.9375 350.8887,335.0781 Q350.248,335.2344 349.5449,335.2344 Q347.0449,335.2344 345.7168,333.5938 Q344.4043,331.9375 344.4043,328.8125 Q344.4043,325.6875 345.7168,324.0313 Q347.0449,322.375 349.5449,322.375 Q350.248,322.375 350.8887,322.5313 Q351.5449,322.6875 352.1074,322.9844 L352.1074,325.7031 Q351.4824,325.125 350.8887,324.8594 Q350.2949,324.5781 349.6699,324.5781 Q348.3262,324.5781 347.6387,325.6563 Q346.9512,326.7188 346.9512,328.8125 Q346.9512,330.9063 347.6387,331.9844 Q348.3262,333.0469 349.6699,333.0469 Q350.2949,333.0469 350.8887,332.7813 Q351.4824,332.5 352.1074,331.9219 L352.1074,334.6406 Z " fill="#000000"/><text fill="#000000" font-family="sans-serif" font-size="14" lengthAdjust="spacing" textLength="41.4805" x="369.6387" y="333.8467">IntSet</text><line style="stroke:#181818;stroke-width:0.5;" x1="298.5" x2="449.7578" y1="345" y2="345"/><rect fill="none" height="6" style="stroke:#C82930;stroke-width:1.0;" width="6" x="305.5" y="355.6484"/><text fill="#000000" font-family="sans-serif" font-size="14" lengthAdjust="spacing" textLength="127.2578" x="317.5" y="361.9951">els: List&lt;Integer&gt;</text><line style="stroke:#181818;stroke-width:0.5;" x1="298.5" x2="449.7578" y1="369.2969" y2="369.2969"/><ellipse cx="308.5" cy="382.9453" fill="#84BE84" rx="3" ry="3" style="stroke:#038048;stroke-width:1.0;"/><text fill="#000000" font-family="sans-serif" font-size="14" lengthAdjust="spacing" textLength="52.4043" x="317.5" y="386.292">IntSet()</text><ellipse cx="308.5" cy="399.2422" fill="#84BE84" rx="3" ry="3" style="stroke:#038048;stroke-width:1.0;"/><text fill="#000000" font-family="sans-serif" font-size="14" lengthAdjust="spacing" textLength="93.8848" x="317.5" y="402.5889">IntSet(IntSet)</text><rect fill="#F24D5C" height="6" style="stroke:#C82930;stroke-width:1.0;" width="6" x="305.5" y="412.5391"/><text fill="#000000" font-family="sans-serif" font-size="14" lengthAdjust="spacing" textLength="118.3711" x="317.5" y="418.8857">getIndex(int): int</text><ellipse cx="308.5" cy="431.8359" fill="#84BE84" rx="3" ry="3" style="stroke:#038048;stroke-width:1.0;"/><text fill="#000000" font-family="sans-serif" font-size="14" lengthAdjust="spacing" textLength="107.8848" x="317.5" y="435.1826">insert(int): void</text><ellipse cx="308.5" cy="448.1328" fill="#84BE84" rx="3" ry="3" style="stroke:#038048;stroke-width:1.0;"/><text fill="#000000" font-family="sans-serif" font-size="14" lengthAdjust="spacing" textLength="121.4404" x="317.5" y="451.4795">remove(int): void</text><ellipse cx="308.5" cy="464.4297" fill="#84BE84" rx="3" ry="3" style="stroke:#038048;stroke-width:1.0;"/><text fill="#000000" font-family="sans-serif" font-size="14" lengthAdjust="spacing" textLength="118.501" x="317.5" y="467.7764">isIn(int): boolean</text><ellipse cx="308.5" cy="480.7266" fill="#84BE84" rx="3" ry="3" style="stroke:#038048;stroke-width:1.0;"/><text fill="#000000" font-family="sans-serif" font-size="14" lengthAdjust="spacing" textLength="65.4883" x="317.5" y="484.0732">size(): int</text><ellipse cx="308.5" cy="497.0234" fill="#84BE84" rx="3" ry="3" style="stroke:#038048;stroke-width:1.0;"/><text fill="#000000" font-family="sans-serif" font-size="14" lengthAdjust="spacing" textLength="87.9512" x="317.5" y="500.3701">choose(): int</text></g></a><!--class PolyClient--><a href="PolyClient.html" target="_top" title="PolyClient.html" xlink:actuate="onRequest" xlink:href="PolyClient.html" xlink:show="new" xlink:title="PolyClient.html" xlink:type="simple"><g id="elem_PolyClient"><rect codeLine="57" fill="#F1F1F1" height="64.2969" id="PolyClient" rx="2.5" ry="2.5" style="stroke:#181818;stroke-width:0.5;" width="163.4023" x="468.5" y="378.5"/><ellipse cx="511.2603" cy="394.5" fill="#ADD1B2" rx="11" ry="11" style="stroke:#181818;stroke-width:1.0;"/><path d="M514.229,400.1406 Q513.6509,400.4375 513.0103,400.5781 Q512.3696,400.7344 511.6665,400.7344 Q509.1665,400.7344 507.8384,399.0938 Q506.5259,397.4375 506.5259,394.3125 Q506.5259,391.1875 507.8384,389.5313 Q509.1665,387.875 511.6665,387.875 Q512.3696,387.875 513.0103,388.0313 Q513.6665,388.1875 514.229,388.4844 L514.229,391.2031 Q513.604,390.625 513.0103,390.3594 Q512.4165,390.0781 511.7915,390.0781 Q510.4478,390.0781 509.7603,391.1563 Q509.0728,392.2188 509.0728,394.3125 Q509.0728,396.4063 509.7603,397.4844 Q510.4478,398.5469 511.7915,398.5469 Q512.4165,398.5469 513.0103,398.2813 Q513.604,398 514.229,397.4219 L514.229,400.1406 Z " fill="#000000"/><text fill="#000000" font-family="sans-serif" font-size="14" lengthAdjust="spacing" textLength="69.7129" x="531.4292" y="399.3467">PolyClient</text><line style="stroke:#181818;stroke-width:0.5;" x1="469.5" x2="630.9023" y1="410.5" y2="410.5"/><line style="stroke:#181818;stroke-width:0.5;" x1="469.5" x2="630.9023" y1="418.5" y2="418.5"/><ellipse cx="479.5" cy="432.1484" fill="#84BE84" rx="3" ry="3" style="stroke:#038048;stroke-width:1.0;"/><text fill="#000000" font-family="sans-serif" font-size="14" lengthAdjust="spacing" text-decoration="underline" textLength="137.4023" x="488.5" y="435.4951">main(String[]): void</text></g></a><!--class Record--><a href="https://docs.oracle.com/en/java/javase/21/docs/api/java.base/java/lang/Record.html?is-external=true" target="_top" title="https://docs.oracle.com/en/java/javase/21/docs/api/java.base/java/lang/Record.html?is-external=true" xlink:actuate="onRequest" xlink:href="https://docs.oracle.com/en/java/javase/21/docs/api/java.base/java/lang/Record.html?is-external=true" xlink:show="new" xlink:title="https://docs.oracle.com/en/java/javase/21/docs/api/java.base/java/lang/Record.html?is-external=true" xlink:type="simple"><g id="elem_Record"><rect codeLine="64" fill="#F1F1F1" height="48" id="Record" rx="2.5" ry="2.5" style="stroke:#181818;stroke-width:0.5;" width="81.2461" x="656.5" y="120.5"/><ellipse cx="671.5" cy="136.5" fill="#A9DCDF" rx="11" ry="11" style="stroke:#181818;stroke-width:1.0;"/><path d="M671.6094,131.8438 L670.4531,136.9219 L672.7813,136.9219 L671.6094,131.8438 Z M670.125,129.6094 L673.1094,129.6094 L676.4688,142 L674.0156,142 L673.25,138.9375 L669.9688,138.9375 L669.2188,142 L666.7813,142 L670.125,129.6094 Z " fill="#000000"/><text fill="#000000" font-family="sans-serif" font-size="14" font-style="italic" lengthAdjust="spacing" textLength="49.2461" x="685.5" y="141.3467">Record</text><line style="stroke:#181818;stroke-width:0.5;" x1="657.5" x2="736.7461" y1="152.5" y2="152.5"/><line style="stroke:#181818;stroke-width:0.5;" x1="657.5" x2="736.7461" y1="160.5" y2="160.5"/></g></a><polygon fill="#181818" points="173.401,345.7175,173.8295,335.8779,171.571,341.0644,166.3846,338.8059,173.401,345.7175" style="stroke:#181818;stroke-width:1.0;"/><path d="M153.3966,258.1871 C154.2499,270.6732 155.7087,283.1505 158,295 C161.274,311.9316 164.8415,323.953 171.205,340.1338 " fill="none" style="stroke:#181818;stroke-width:1.0;"/><text fill="#000000" font-family="sans-serif" font-size="13" lengthAdjust="spacing" textLength="37.8765" x="160" y="290.0669">terms</text><text fill="#000000" font-family="sans-serif" font-size="13" lengthAdjust="spacing" textLength="6.5" x="166.401" y="341.7844">*</text><polygon fill="none" points="692.8146,168.5406,682.9196,184.7298,694.6121,187.4289,692.8146,168.5406" style="stroke:#181818;stroke-width:1.0;"/><path d="M688.7658,186.0793 C682.7465,212.1547 673.0473,236.2773 644,258 C516.1394,353.6192 429.0237,236.288 289,313 C274.1191,321.1525 260.5823,332.9694 248.9031,345.5565 " fill="none" style="stroke:#181818;stroke-width:1.0;"/><ellipse cx="197.1986" cy="266.0221" fill="#FFFFFF" rx="8" ry="8" style="stroke:#181818;stroke-width:1.0;"/><line style="stroke:#181818;stroke-width:1.0;" x1="198.9606" x2="195.4366" y1="273.8257" y2="258.2186"/><line style="stroke:#181818;stroke-width:1.0;" x1="189.3951" x2="205.0022" y1="267.7841" y2="264.2601"/><path d="M198.9606,273.8257 C200.3105,279.8042 197.9902,270.1495 199,276 C202.9056,298.6268 204.5382,323.7183 205.0717,345.9843 " fill="none" style="stroke:#181818;stroke-width:1.0;"/><text fill="#888888" font-family="sans-serif" font-size="10" lengthAdjust="spacing" textLength="3.1787" x="366.9106" y="527.2822">&#160;</text><text fill="#888888" font-family="sans-serif" font-size="10" lengthAdjust="spacing" textLength="183.0908" x="276.9546" y="538.9229">UMLDoclet 2.2.0, PlantUML 1.2024.6</text><!--SRC=[hLLHRvim47xlhxXLcWHBCMqUKPT9MryYTLArR4yP3mvSY3UmaMsYPbt- -sn34qWWOz9uiE7kyvtlkmyR0E1DAMbMKCZfJbGQL86QSdfbFA3GV6D99TL2GXHTEMj9avyqGs2QL9mLZAICb59aKxAvkuMN6cIV9ATAmSAiL_Wayjsdd27Ni5oUciX65taScxNGUbwKffebUvWKb75leINZsJBs8zWAbXwW- -64dLJzIIP7WESFUXZNDs26BY9e8HwPqlTVKHOplx-8OCru-d7tW9b4RC7hk94Tk-aJWUkrD-1Cwp0zhcD2cgOsGoUNdKu9T04Ds3kMOo37ZowmgF9nG5MjHaPal59UF-12SucjfTjXQ-blS-3OP8bLspbdGKrd3y-EmFxkJreXlV4zEgke4UgmHC_sleoxYVh4Uqcshpv_hAOkQz5Afsbnlrm6dLOYmojVPN5P47Ek5sWFbVfbW4BCLGJkHp0mp53EkidgnQSaDjPwEY4nGptdAJuFiSAuGgaRx_d_9h4GMnnqCpNdZNCbH8wKdp37VWrqQYE46YUwmt7yVm_YVVUM-46tbEIKPwsWTAMqf8bkDlC54o5Jiv6DrgMAmZ0LYIB2878aYIX2vA4DumQ5uVJE8K9QCcSYAsjr29iehEEvMZum5U2pHibf_bxB2kEulSdUAooAMZT84CpW-jtrtv7ky8d0f2gKYtqeF8gQ0kz_1y78G2DtD_ctW8bfCKfO2s6dx_pRvyS7OKZMC2LJSdi3JsQ_sbZXxHQbOe9x_Xy0]--></g></svg>