<svg xmlns="http://www.w3.org/2000/svg" xmlns:xlink="http://www.w3.org/1999/xlink" contentStyleType="text/css" height="367px" preserveAspectRatio="none" style="width:722px;height:367px;background:#FFFFFF;" version="1.1" viewBox="0 0 722 367" width="722px" zoomAndPan="magnify"><defs/><g><!--cluster it.unimi.di.prog2.h08--><g id="cluster_it.unimi.di.prog2.h08"><path d="M16.5,4 L184.96,4 A3.75,3.75 0 0 1 187.46,6.5 L194.46,26.2969 L712.5,26.2969 A2.5,2.5 0 0 1 715,28.7969 L715,331.5 A2.5,2.5 0 0 1 712.5,334 L16.5,334 A2.5,2.5 0 0 1 14,331.5 L14,6.5 A2.5,2.5 0 0 1 16.5,4 " fill="none" style="stroke:#000000;stroke-width:1.5;"/><line style="stroke:#000000;stroke-width:1.5;" x1="14" x2="194.46" y1="26.2969" y2="26.2969"/><text fill="#000000" font-family="sans-serif" font-size="14" font-weight="bold" lengthAdjust="spacing" textLength="167.46" x="18" y="18.9951">it.unimi.di.prog2.h08</text></g><!--class IntSet--><a href="IntSet.html" target="_top" title="IntSet.html" xlink:actuate="onRequest" xlink:href="IntSet.html" xlink:show="new" xlink:title="IntSet.html" xlink:type="simple"><g id="elem_IntSet"><rect codeLine="6" fill="#F1F1F1" height="129.4844" id="IntSet" rx="2.5" ry="2.5" style="stroke:#181818;stroke-width:0.5;" width="147.4404" x="22.5" y="64"/><ellipse cx="71.23" cy="80" fill="#ADD1B2" rx="11" ry="11" style="stroke:#181818;stroke-width:1.0;"/><path d="M74.1987,85.6406 Q73.6206,85.9375 72.98,86.0781 Q72.3394,86.2344 71.6362,86.2344 Q69.1362,86.2344 67.8081,84.5938 Q66.4956,82.9375 66.4956,79.8125 Q66.4956,76.6875 67.8081,75.0313 Q69.1362,73.375 71.6362,73.375 Q72.3394,73.375 72.98,73.5313 Q73.6362,73.6875 74.1987,73.9844 L74.1987,76.7031 Q73.5737,76.125 72.98,75.8594 Q72.3862,75.5781 71.7612,75.5781 Q70.4175,75.5781 69.73,76.6563 Q69.0425,77.7188 69.0425,79.8125 Q69.0425,81.9063 69.73,82.9844 Q70.4175,84.0469 71.7612,84.0469 Q72.3862,84.0469 72.98,83.7813 Q73.5737,83.5 74.1987,82.9219 L74.1987,85.6406 Z " fill="#000000"/><text fill="#000000" font-family="sans-serif" font-size="14" lengthAdjust="spacing" textLength="41.4805" x="91.73" y="84.8467">IntSet</text><line style="stroke:#181818;stroke-width:0.5;" x1="23.5" x2="168.9404" y1="96" y2="96"/><line style="stroke:#181818;stroke-width:0.5;" x1="23.5" x2="168.9404" y1="104" y2="104"/><ellipse cx="33.5" cy="117.6484" fill="#84BE84" rx="3" ry="3" style="stroke:#038048;stroke-width:1.0;"/><text fill="#000000" font-family="sans-serif" font-size="14" lengthAdjust="spacing" textLength="107.8848" x="42.5" y="120.9951">insert(int): void</text><ellipse cx="33.5" cy="133.9453" fill="#84BE84" rx="3" ry="3" style="stroke:#038048;stroke-width:1.0;"/><text fill="#000000" font-family="sans-serif" font-size="14" lengthAdjust="spacing" textLength="121.4404" x="42.5" y="137.292">remove(int): void</text><ellipse cx="33.5" cy="150.2422" fill="#84BE84" rx="3" ry="3" style="stroke:#038048;stroke-width:1.0;"/><text fill="#000000" font-family="sans-serif" font-size="14" lengthAdjust="spacing" textLength="118.501" x="42.5" y="153.5889">isIn(int): boolean</text><ellipse cx="33.5" cy="166.5391" fill="#84BE84" rx="3" ry="3" style="stroke:#038048;stroke-width:1.0;"/><text fill="#000000" font-family="sans-serif" font-size="14" lengthAdjust="spacing" textLength="65.4883" x="42.5" y="169.8857">size(): int</text><ellipse cx="33.5" cy="182.8359" fill="#84BE84" rx="3" ry="3" style="stroke:#038048;stroke-width:1.0;"/><text fill="#000000" font-family="sans-serif" font-size="14" lengthAdjust="spacing" textLength="87.9512" x="42.5" y="186.1826">choose(): int</text></g></a><!--class IntSetsClient--><a href="IntSetsClient.html" target="_top" title="IntSetsClient.html" xlink:actuate="onRequest" xlink:href="IntSetsClient.html" xlink:show="new" xlink:title="IntSetsClient.html" xlink:type="simple"><g id="elem_IntSetsClient"><rect codeLine="14" fill="#F1F1F1" height="64.2969" id="IntSetsClient" rx="2.5" ry="2.5" style="stroke:#181818;stroke-width:0.5;" width="163.4023" x="187.5" y="96.5"/><ellipse cx="221.4439" cy="112.5" fill="#ADD1B2" rx="11" ry="11" style="stroke:#181818;stroke-width:1.0;"/><path d="M224.4127,118.1406 Q223.8346,118.4375 223.1939,118.5781 Q222.5533,118.7344 221.8502,118.7344 Q219.3502,118.7344 218.0221,117.0938 Q216.7096,115.4375 216.7096,112.3125 Q216.7096,109.1875 218.0221,107.5313 Q219.3502,105.875 221.8502,105.875 Q222.5533,105.875 223.1939,106.0313 Q223.8502,106.1875 224.4127,106.4844 L224.4127,109.2031 Q223.7877,108.625 223.1939,108.3594 Q222.6002,108.0781 221.9752,108.0781 Q220.6314,108.0781 219.9439,109.1563 Q219.2564,110.2188 219.2564,112.3125 Q219.2564,114.4063 219.9439,115.4844 Q220.6314,116.5469 221.9752,116.5469 Q222.6002,116.5469 223.1939,116.2813 Q223.7877,116 224.4127,115.4219 L224.4127,118.1406 Z " fill="#000000"/><text fill="#000000" font-family="sans-serif" font-size="14" lengthAdjust="spacing" textLength="89.3047" x="239.6537" y="117.3467">IntSetsClient</text><line style="stroke:#181818;stroke-width:0.5;" x1="188.5" x2="349.9023" y1="128.5" y2="128.5"/><line style="stroke:#181818;stroke-width:0.5;" x1="188.5" x2="349.9023" y1="136.5" y2="136.5"/><ellipse cx="198.5" cy="150.1484" fill="#84BE84" rx="3" ry="3" style="stroke:#038048;stroke-width:1.0;"/><text fill="#000000" font-family="sans-serif" font-size="14" lengthAdjust="spacing" text-decoration="underline" textLength="137.4023" x="207.5" y="153.4951">main(String[]): void</text></g></a><!--class Poly--><a href="Poly.html" target="_top" title="Poly.html" xlink:actuate="onRequest" xlink:href="Poly.html" xlink:show="new" xlink:title="Poly.html" xlink:type="simple"><g id="elem_Poly"><rect codeLine="18" fill="#F1F1F1" height="194.6719" id="Poly" rx="2.5" ry="2.5" style="stroke:#181818;stroke-width:0.5;" width="337.8213" x="369" y="31"/><ellipse cx="519.0693" cy="47" fill="#ADD1B2" rx="11" ry="11" style="stroke:#181818;stroke-width:1.0;"/><path d="M522.0381,52.6406 Q521.46,52.9375 520.8193,53.0781 Q520.1787,53.2344 519.4756,53.2344 Q516.9756,53.2344 515.6475,51.5938 Q514.335,49.9375 514.335,46.8125 Q514.335,43.6875 515.6475,42.0313 Q516.9756,40.375 519.4756,40.375 Q520.1787,40.375 520.8193,40.5313 Q521.4756,40.6875 522.0381,40.9844 L522.0381,43.7031 Q521.4131,43.125 520.8193,42.8594 Q520.2256,42.5781 519.6006,42.5781 Q518.2568,42.5781 517.5693,43.6563 Q516.8818,44.7188 516.8818,46.8125 Q516.8818,48.9063 517.5693,49.9844 Q518.2568,51.0469 519.6006,51.0469 Q520.2256,51.0469 520.8193,50.7813 Q521.4131,50.5 522.0381,49.9219 L522.0381,52.6406 Z " fill="#000000"/><text fill="#000000" font-family="sans-serif" font-size="14" lengthAdjust="spacing" textLength="29.1826" x="539.5693" y="51.8467">Poly</text><line style="stroke:#181818;stroke-width:0.5;" x1="370" x2="705.8213" y1="63" y2="63"/><line style="stroke:#181818;stroke-width:0.5;" x1="370" x2="705.8213" y1="71" y2="71"/><ellipse cx="380" cy="84.6484" fill="#84BE84" rx="3" ry="3" style="stroke:#038048;stroke-width:1.0;"/><text fill="#000000" font-family="sans-serif" font-size="14" lengthAdjust="spacing" textLength="40.1064" x="389" y="87.9951">Poly()</text><ellipse cx="380" cy="100.9453" fill="#84BE84" rx="3" ry="3" style="stroke:#038048;stroke-width:1.0;"/><text fill="#000000" font-family="sans-serif" font-size="14" lengthAdjust="spacing" textLength="85.5107" x="389" y="104.292">Poly(int, int)</text><ellipse cx="380" cy="117.2422" fill="#84BE84" rx="3" ry="3" style="stroke:#038048;stroke-width:1.0;"/><text fill="#000000" font-family="sans-serif" font-size="14" lengthAdjust="spacing" text-decoration="underline" textLength="311.8213" x="389" y="120.5889">monomialWithCoeffAndDegree(int, int): Poly</text><ellipse cx="380" cy="133.5391" fill="#84BE84" rx="3" ry="3" style="stroke:#038048;stroke-width:1.0;"/><text fill="#000000" font-family="sans-serif" font-size="14" lengthAdjust="spacing" textLength="87.7119" x="389" y="136.8857">degree(): int</text><ellipse cx="380" cy="149.8359" fill="#84BE84" rx="3" ry="3" style="stroke:#038048;stroke-width:1.0;"/><text fill="#000000" font-family="sans-serif" font-size="14" lengthAdjust="spacing" textLength="91.3281" x="389" y="153.1826">coeff(int): int</text><ellipse cx="380" cy="166.1328" fill="#84BE84" rx="3" ry="3" style="stroke:#038048;stroke-width:1.0;"/><text fill="#000000" font-family="sans-serif" font-size="14" lengthAdjust="spacing" textLength="104.8086" x="389" y="169.4795">add(Poly): Poly</text><ellipse cx="380" cy="182.4297" fill="#84BE84" rx="3" ry="3" style="stroke:#038048;stroke-width:1.0;"/><text fill="#000000" font-family="sans-serif" font-size="14" lengthAdjust="spacing" textLength="104.8564" x="389" y="185.7764">mul(Poly): Poly</text><ellipse cx="380" cy="198.7266" fill="#84BE84" rx="3" ry="3" style="stroke:#038048;stroke-width:1.0;"/><text fill="#000000" font-family="sans-serif" font-size="14" lengthAdjust="spacing" textLength="103.5098" x="389" y="202.0732">sub(Poly): Poly</text><ellipse cx="380" cy="215.0234" fill="#84BE84" rx="3" ry="3" style="stroke:#038048;stroke-width:1.0;"/><text fill="#000000" font-family="sans-serif" font-size="14" lengthAdjust="spacing" textLength="91.8408" x="389" y="218.3701">minus(): Poly</text></g></a><!--class IntSets--><a href="IntSets.html" target="_top" title="IntSets.html" xlink:actuate="onRequest" xlink:href="IntSets.html" xlink:show="new" xlink:title="IntSets.html" xlink:type="simple"><g id="elem_IntSets"><rect codeLine="30" fill="#F1F1F1" height="64.2969" id="IntSets" rx="2.5" ry="2.5" style="stroke:#181818;stroke-width:0.5;" width="204.9922" x="22.5" y="262"/><ellipse cx="96.3589" cy="278" fill="#ADD1B2" rx="11" ry="11" style="stroke:#181818;stroke-width:1.0;"/><path d="M99.3276,283.6406 Q98.7495,283.9375 98.1089,284.0781 Q97.4683,284.2344 96.7651,284.2344 Q94.2651,284.2344 92.937,282.5938 Q91.6245,280.9375 91.6245,277.8125 Q91.6245,274.6875 92.937,273.0313 Q94.2651,271.375 96.7651,271.375 Q97.4683,271.375 98.1089,271.5313 Q98.7651,271.6875 99.3276,271.9844 L99.3276,274.7031 Q98.7026,274.125 98.1089,273.8594 Q97.5151,273.5781 96.8901,273.5781 Q95.5464,273.5781 94.8589,274.6563 Q94.1714,275.7188 94.1714,277.8125 Q94.1714,279.9063 94.8589,280.9844 Q95.5464,282.0469 96.8901,282.0469 Q97.5151,282.0469 98.1089,281.7813 Q98.7026,281.5 99.3276,280.9219 L99.3276,283.6406 Z " fill="#000000"/><text fill="#000000" font-family="sans-serif" font-size="14" lengthAdjust="spacing" textLength="48.7744" x="116.8589" y="282.8467">IntSets</text><line style="stroke:#181818;stroke-width:0.5;" x1="23.5" x2="226.4922" y1="294" y2="294"/><line style="stroke:#181818;stroke-width:0.5;" x1="23.5" x2="226.4922" y1="302" y2="302"/><ellipse cx="33.5" cy="315.6484" fill="#84BE84" rx="3" ry="3" style="stroke:#038048;stroke-width:1.0;"/><text fill="#000000" font-family="sans-serif" font-size="14" lengthAdjust="spacing" text-decoration="underline" textLength="178.9922" x="42.5" y="318.9951">getElements(int[]): IntSet</text></g></a><!--class Polys--><a href="Polys.html" target="_top" title="Polys.html" xlink:actuate="onRequest" xlink:href="Polys.html" xlink:show="new" xlink:title="Polys.html" xlink:type="simple"><g id="elem_Polys"><rect codeLine="34" fill="#F1F1F1" height="64.2969" id="Polys" rx="2.5" ry="2.5" style="stroke:#181818;stroke-width:0.5;" width="127.0898" x="245.5" y="262"/><ellipse cx="286.876" cy="278" fill="#ADD1B2" rx="11" ry="11" style="stroke:#181818;stroke-width:1.0;"/><path d="M289.8447,283.6406 Q289.2666,283.9375 288.626,284.0781 Q287.9854,284.2344 287.2822,284.2344 Q284.7822,284.2344 283.4541,282.5938 Q282.1416,280.9375 282.1416,277.8125 Q282.1416,274.6875 283.4541,273.0313 Q284.7822,271.375 287.2822,271.375 Q287.9854,271.375 288.626,271.5313 Q289.2822,271.6875 289.8447,271.9844 L289.8447,274.7031 Q289.2197,274.125 288.626,273.8594 Q288.0322,273.5781 287.4072,273.5781 Q286.0635,273.5781 285.376,274.6563 Q284.6885,275.7188 284.6885,277.8125 Q284.6885,279.9063 285.376,280.9844 Q286.0635,282.0469 287.4072,282.0469 Q288.0322,282.0469 288.626,281.7813 Q289.2197,281.5 289.8447,280.9219 L289.8447,283.6406 Z " fill="#000000"/><text fill="#000000" font-family="sans-serif" font-size="14" lengthAdjust="spacing" textLength="36.4766" x="306.7373" y="282.8467">Polys</text><line style="stroke:#181818;stroke-width:0.5;" x1="246.5" x2="371.5898" y1="294" y2="294"/><line style="stroke:#181818;stroke-width:0.5;" x1="246.5" x2="371.5898" y1="302" y2="302"/><ellipse cx="256.5" cy="315.6484" fill="#84BE84" rx="3" ry="3" style="stroke:#038048;stroke-width:1.0;"/><text fill="#000000" font-family="sans-serif" font-size="14" lengthAdjust="spacing" text-decoration="underline" textLength="101.0898" x="265.5" y="318.9951">diff(Poly): Poly</text></g></a><text fill="#888888" font-family="sans-serif" font-size="10" lengthAdjust="spacing" textLength="3.1787" x="351.4106" y="345.2822">&#160;</text><text fill="#888888" font-family="sans-serif" font-size="10" lengthAdjust="spacing" textLength="183.0908" x="261.4546" y="356.9229">UMLDoclet 2.2.0, PlantUML 1.2024.6</text><!--SRC=[XLDDQy904BtxAwQ7Ge8In5F9hMWFGWk2b1wiXpKPaw6xEs5t8rZnltVp0JQQw1wosNqpR-RDOm40dWeZCYL0YYEN3gn29xGOUGGi-ZCMmWZ71k9uLDyM8laH6GAvgDIaA4efAWndioYVli2f2QfM8eMriDHkxNasc-OdofsIswsFWtzhJDgYSG5f5yPmO4gxi4751no4oIvr2-wO9GhTnItzOk117z85afpPta3dVWrsBWdrHKfxxbTqiauuIiumLe9qi7Q6TBRPNhT_Ksh5ykWhLDl0g2ee27lkl8H9fICSQeGrAnBoYrm-PzplNtMwmCmWNbBZke4kUTh4zCwlecadVmEAD0qgjbvILSfXq9QxEvcaInjSGqEUNTnwv5E6xasYyexQIb7jLPDwtotRslMmG4f-LdsoMjfp_Kry0sXWprnjt_hputt1YVHFQ1RDeka4Lb9evs_X-O364kiW_0C0]--></g></svg>